<svg xmlns="http://www.w3.org/2000/svg" viewBox="0 0 76.51 77.02"><g><g><path fill="#ff2351" d="M10.48 16.59h12.38v16.95h10.47v5.14H7.18v5.13h10.44v33.21H42.96V38.68h5.24V16.59h23.07V0H0v16.59h10.48z"/><path fill="#ff2351" d="M7.19 54.84h5.14v5.14H7.19z"/><path fill="#00d8eb" d="M22.86 16.59h5.23v16.95h5.24v5.14H22.86v38.34H48.2V38.68h15.17v-5.14h-9.93V21.73H48.2v-5.14H76.51V0H5.24v16.59h17.62z"/><path fill="#00d8eb" d="M48.22 71.89h10.51v5.14H48.22zM63.37 43.81h5.14v5.14h-5.14z"/><path fill="#000b34" d="M22.86 16.59h5.23v16.95h5.24v5.14H22.86v38.34h20.1V38.68h5.24V16.59h23.07V0H5.24v16.59h17.62z"/></g></g></svg>